<svg width="176" height="52" viewBox="0 0 176 52" fill="none" xmlns="http://www.w3.org/2000/svg">
<g clip-path="url(#clip0)">
<g clip-path="url(#clip1)">
<path d="M7.76534 23.3826L10.4107 22.0738L14.592 15.7919L15.872 15.2685L17.2374 21.6376L15.4454 21.8993L14.08 19.2819L13.056 23.3826H17.5787L22.272 24.604L24.1494 23.3826L27.3067 26.698L28.672 20.5906L30.8907 22.8591L32.256 20.9396L34.4747 20.3289L37.7174 17.2752L38.2294 15.7919L40.8747 16.2282L41.9841 17.7114L40.0214 21.8993L44.8854 19.3691V18.1476L46.7627 17.7114L48.8107 19.8054L50.8587 17.2752V15.5302L54.1867 13.1745L55.5521 11.1678H57.6854L61.4401 3.40268L64.6828 0L65.8774 1.91946L64.0001 4.36242L64.6828 5.93289L66.4748 6.28188L67.9254 12.7383V18.1476L70.4854 21.7248L71.7654 26.698L67.3281 23.8188L65.3654 15.5302L64.1707 15.7919L64.0001 21.3758L60.7574 26.698L59.8187 34.8121L62.0374 35.3356L62.9761 34.2013L65.1094 36.6443L66.7307 43.9732L66.5601 48.6846H64.5121L63.7441 42.0537L62.2934 44.0604L59.1361 43.3624L56.5761 41.1812L53.6747 42.2282L53.8454 46.9396L51.5414 47.5503L48.1281 50.1678L44.0321 49.6443L42.4107 48.6846L39.8507 49.1208L40.7041 50.1678L38.6561 51.3893L37.0347 50.604L33.9627 52L29.2694 49.6443L27.4774 45.4564L25.9414 45.6309L24.1494 44.1477L24.064 43.0134L18.3467 42.4027L17.408 45.5436L13.824 43.8859L12.032 40.8322H8.19201L7.76534 45.7181L5.54667 46.4161L4.43734 50.8658L3.584 50.0805L0 40.745L4.26667 38.651L3.584 34.5503L2.90134 30.3624L4.77867 27.6577L4.18134 26L6.74134 23.2081L7.76534 23.3826ZM64.5121 33.6779L68.4374 39.6107L69.7174 39.0872L68.0961 36.6443L64.5121 32.8054V33.6779ZM24.4054 21.6376V19.8926L27.392 17.7114L29.952 16.4027H26.9654L24.32 17.9732L22.6987 19.4564V21.6376H24.4054Z" fill="white"/>
<path d="M89.8314 41.0004H94.5546V35.8186H97.171C101.138 35.8186 103.797 33.4749 103.797 29.7164C103.797 26.0004 101.206 23.5459 97.3409 23.5459H89.8314V41.0004ZM94.5546 32.1368V27.33H96.2196C97.8761 27.33 98.87 28.2164 98.87 29.7164C98.87 31.2078 97.8761 32.1368 96.2196 32.1368H94.5546Z" fill="white"/>
<path d="M111.604 41.2391C115.851 41.2391 118.366 38.5118 118.366 34.4891C118.366 30.4664 115.851 27.7391 111.604 27.7391C107.356 27.7391 104.842 30.4664 104.842 34.4891C104.842 38.5118 107.356 41.2391 111.604 41.2391ZM111.638 37.7618C110.381 37.7618 109.633 36.509 109.633 34.455C109.633 32.401 110.381 31.1482 111.638 31.1482C112.827 31.1482 113.575 32.401 113.575 34.455C113.575 36.509 112.827 37.7618 111.638 37.7618Z" fill="white"/>
<path d="M126.555 41.2391C130.42 41.2391 132.79 39.0146 132.841 35.5459H128.492C128.39 36.9181 127.651 37.6595 126.623 37.6595C125.391 37.6595 124.584 36.6027 124.584 34.455C124.584 32.3073 125.391 31.2504 126.623 31.2504C127.659 31.2504 128.364 31.9919 128.492 33.3641H132.841C132.816 29.955 130.395 27.7391 126.555 27.7391C122.308 27.7391 119.793 30.4664 119.793 34.4891C119.793 38.5118 122.308 41.2391 126.555 41.2391Z" fill="white"/>
<path d="M141.062 41.2391C144.928 41.2391 147.298 39.0146 147.349 35.5459H142.999C142.897 36.9181 142.158 37.6595 141.13 37.6595C139.899 37.6595 139.092 36.6027 139.092 34.455C139.092 32.3073 139.899 31.2504 141.13 31.2504C142.167 31.2504 142.872 31.9919 142.999 33.3641H147.349C147.323 29.955 144.902 27.7391 141.062 27.7391C136.815 27.7391 134.3 30.4664 134.3 34.4891C134.3 38.5118 136.815 41.2391 141.062 41.2391Z" fill="white"/>
<path d="M153.701 35.0004V27.9095H149.283V41.0004H153.701L157.337 33.8754V41.0004H161.754V27.9095H157.337L153.701 35.0004Z" fill="white"/>
<path d="M171.651 41.0004H176V27.9095H169.884C166.12 27.9095 163.742 29.8186 163.767 32.4777C163.75 33.9692 164.642 35.205 166.205 35.9379L163.631 41.0004H167.947L170.147 36.6709H171.651V41.0004ZM171.651 33.8414H169.986C168.737 33.8414 168.159 33.2277 168.185 32.6482C168.159 32.1027 168.703 31.4209 169.884 31.4209H171.651V33.8414Z" fill="white"/>
</g>
<path d="M89.6702 41H93.3605V34.8125H96.0537L99.3605 41H103.434L99.727 34.2159C101.713 33.3636 102.812 31.6335 102.812 29.2472C102.812 25.7784 100.52 23.5455 96.5565 23.5455H89.6702V41ZM93.3605 31.8466V26.5625H95.8491C97.9798 26.5625 99.0111 27.5085 99.0111 29.2472C99.0111 30.9773 97.9798 31.8466 95.8662 31.8466H93.3605ZM114.467 35.4261C114.475 37.1818 113.274 38.1023 111.97 38.1023C110.598 38.1023 109.711 37.1392 109.703 35.5966V27.9091H106.072V36.2443C106.081 39.304 107.87 41.1705 110.504 41.1705C112.473 41.1705 113.887 40.1562 114.475 38.6222H114.612V41H118.098V27.9091H114.467V35.4261ZM132.614 31.642C132.29 29.2301 130.347 27.7386 127.04 27.7386C123.69 27.7386 121.483 29.2898 121.492 31.8125C121.483 33.7727 122.719 35.0426 125.276 35.554L127.543 36.0057C128.685 36.2358 129.205 36.6534 129.222 37.3097C129.205 38.0852 128.361 38.6392 127.091 38.6392C125.796 38.6392 124.935 38.0852 124.713 37.0199L121.142 37.2074C121.483 39.7131 123.614 41.2557 127.082 41.2557C130.475 41.2557 132.903 39.5256 132.912 36.9432C132.903 35.0511 131.668 33.9176 129.128 33.3977L126.759 32.9205C125.54 32.6562 125.088 32.2386 125.097 31.608C125.088 30.8239 125.975 30.3125 127.1 30.3125C128.361 30.3125 129.111 31.0028 129.29 31.8466L132.614 31.642ZM146.81 31.642C146.486 29.2301 144.543 27.7386 141.236 27.7386C137.887 27.7386 135.68 29.2898 135.688 31.8125C135.68 33.7727 136.915 35.0426 139.472 35.554L141.739 36.0057C142.881 36.2358 143.401 36.6534 143.418 37.3097C143.401 38.0852 142.557 38.6392 141.288 38.6392C139.992 38.6392 139.131 38.0852 138.91 37.0199L135.339 37.2074C135.68 39.7131 137.81 41.2557 141.279 41.2557C144.671 41.2557 147.1 39.5256 147.109 36.9432C147.1 35.0511 145.864 33.9176 143.324 33.3977L140.955 32.9205C139.736 32.6562 139.285 32.2386 139.293 31.608C139.285 30.8239 140.171 30.3125 141.296 30.3125C142.557 30.3125 143.307 31.0028 143.486 31.8466L146.81 31.642ZM150.115 41H153.745V27.9091H150.115V41ZM151.939 26.2216C153.021 26.2216 153.907 25.3949 153.907 24.3807C153.907 23.375 153.021 22.5483 151.939 22.5483C150.865 22.5483 149.978 23.375 149.978 24.3807C149.978 25.3949 150.865 26.2216 151.939 26.2216ZM161.107 41.2472C163.041 41.2472 164.294 40.4034 164.934 39.1847H165.036V41H168.479V32.1705C168.479 29.0511 165.837 27.7386 162.922 27.7386C159.786 27.7386 157.723 29.2386 157.22 31.625L160.578 31.8977C160.826 31.0284 161.601 30.3892 162.905 30.3892C164.141 30.3892 164.848 31.0114 164.848 32.0852V32.1364C164.848 32.9801 163.953 33.0909 161.678 33.3125C159.087 33.5511 156.76 34.4205 156.76 37.3438C156.76 39.9347 158.61 41.2472 161.107 41.2472ZM162.147 38.7415C161.03 38.7415 160.229 38.2216 160.229 37.2244C160.229 36.2017 161.073 35.6989 162.351 35.5199C163.144 35.4091 164.439 35.2216 164.874 34.9318V36.321C164.874 37.6932 163.74 38.7415 162.147 38.7415Z" fill="white"/>
</g>
<defs>
<clipPath id="clip0">
<rect width="176" height="52" fill="white"/>
</clipPath>
<clipPath id="clip1">
<rect width="81" height="52" fill="white"/>
</clipPath>
</defs>
</svg>
